
      <svg data-logo="logo" xmlns="http://www.w3.org/2000/svg" viewBox="0 0 220 36">
        <g id="logogram" transform="translate(0, 1) rotate(0) "><path d="M15.4992 0H36.5808L21.0816 22.9729H0L15.4992 0Z" fill="#007AFF"/><path d="M16.4224 25.102L10.4192 34H32.5008L48 11.0271H31.7024L22.2064 25.102H16.4224Z" fill="#312ECB"/></g>
        <g id="logotype" transform="translate(53, 5)"><path fill="#111111" d="M21.03 26.45L21.03 26.45Q16.66 26.45 13.28 24.86Q9.90 23.27 7.99 20.38Q6.08 17.49 6.08 13.57L6.08 13.57Q6.08 9.65 8.08 6.78Q10.07 3.91 13.58 2.34Q17.08 0.76 21.59 0.76L21.59 0.76Q25.55 0.76 28.47 1.80Q31.39 2.83 33.23 4.63Q35.06 6.43 35.73 8.74L35.73 8.74L29.47 10.25Q28.77 8.53 27.59 7.64Q26.42 6.75 24.92 6.42Q23.41 6.08 21.70 6.08L21.70 6.08Q19.32 6.08 17.37 6.87Q15.43 7.66 14.29 9.23Q13.16 10.81 13.16 13.22L13.16 13.22L13.16 13.92Q13.16 16.30 14.33 17.93Q15.50 19.56 17.58 20.38Q19.66 21.20 22.33 21.20L22.33 21.20Q24.50 21.20 26.18 20.70Q27.86 20.19 28.82 19.24Q29.78 18.30 29.78 16.93L29.78 16.93L29.78 16.69L20.82 16.69L20.82 11.86L36.22 11.86L36.22 26L30.66 26L30.38 23.55Q28.59 25.05 26.14 25.75Q23.69 26.45 21.03 26.45ZM46.48 5.70L39.76 5.70L39.76 0.80L46.48 0.80L46.48 5.70ZM46.48 26L39.69 26L39.69 8.01L46.48 8.01L46.48 26ZM61.59 26.42L61.59 26.42Q59.08 26.42 57.13 25.84Q55.19 25.27 54.07 23.88Q52.95 22.50 52.95 20.12L52.95 20.12L52.95 12.45L48.65 12.45L48.65 8.01L53.09 8.01L53.93 2.44L59.74 2.44L59.74 8.01L67.34 8.01L67.34 12.45L59.74 12.45L59.74 19.31Q59.74 20.40 60.27 20.93Q60.79 21.45 61.63 21.61Q62.47 21.77 63.38 21.77L63.38 21.77Q64.36 21.77 65.43 21.63Q66.50 21.48 67.69 21.31L67.69 21.31L67.69 25.72Q66.04 26.07 64.62 26.25Q63.21 26.42 61.59 26.42ZM84.45 26.45L84.45 26.45Q79.97 26.45 76.49 24.86Q73.01 23.27 71.03 20.38Q69.05 17.49 69.05 13.57L69.05 13.57Q69.05 9.65 71.03 6.78Q73.01 3.91 76.49 2.34Q79.97 0.76 84.45 0.76L84.45 0.76Q88.37 0.76 91.34 1.88Q94.32 3.00 96.25 4.95Q98.17 6.89 98.84 9.30L98.84 9.30L92.57 10.81Q91.84 8.99 90.61 7.96Q89.39 6.92 87.83 6.50Q86.27 6.08 84.56 6.08L84.56 6.08Q82.25 6.08 80.32 6.87Q78.40 7.66 77.26 9.23Q76.12 10.81 76.12 13.22L76.12 13.22L76.12 13.92Q76.12 16.30 77.26 17.90Q78.40 19.49 80.32 20.28Q82.25 21.06 84.56 21.06L84.56 21.06Q86.27 21.06 87.83 20.64Q89.39 20.23 90.61 19.19Q91.84 18.16 92.57 16.34L92.57 16.34L98.84 17.84Q98.17 20.26 96.25 22.20Q94.32 24.14 91.34 25.30Q88.37 26.45 84.45 26.45ZM108.78 26.35L108.78 26.35Q105.10 26.35 102.83 24.93Q100.55 23.52 100.55 20.86L100.55 20.86Q100.55 18.68 102.23 17.20Q103.91 15.71 107.83 15.32L107.83 15.32L115.36 14.59L115.36 14.41Q115.36 11.96 111.61 11.96L111.61 11.96Q109.90 11.96 108.93 12.47Q107.97 12.98 107.62 14.10L107.62 14.10L100.80 13.61Q101.22 12.00 102.44 10.63Q103.67 9.27 105.94 8.43Q108.22 7.59 111.72 7.59L111.72 7.59Q116.79 7.59 119.47 9.38Q122.15 11.16 122.15 14.59L122.15 14.59L122.15 20.57Q122.15 21.87 122.16 22.75Q122.18 23.62 122.23 24.37Q122.29 25.13 122.39 26L122.39 26L115.92 26L115.78 24.46Q114.55 25.48 112.73 25.91Q110.91 26.35 108.78 26.35ZM107.45 20.71L107.45 20.71Q107.45 21.41 108.09 21.85Q108.74 22.29 110.25 22.29L110.25 22.29Q111.51 22.29 112.68 22.04Q113.85 21.80 114.60 21.20Q115.36 20.61 115.36 19.59L115.36 19.59L115.36 18.37L109.55 19.11Q108.57 19.24 108.01 19.59Q107.45 19.95 107.45 20.71ZM132.40 26L125.61 26L125.61 8.01L132.30 8.01L132.30 10.49Q133.52 8.99 135.38 8.29Q137.23 7.59 139.23 7.59L139.23 7.59Q139.61 7.59 140.14 7.63Q140.66 7.66 141.29 7.76L141.29 7.76L141.29 12.98Q140.35 12.87 139.17 12.80Q138.00 12.73 136.81 12.84Q135.62 12.94 134.62 13.35Q133.63 13.75 133.01 14.62Q132.40 15.50 132.40 17.00L132.40 17.00L132.40 26ZM152.53 26.42L152.53 26.42Q150.74 26.42 148.85 25.89Q146.96 25.37 145.37 24.23Q143.78 23.09 142.78 21.31Q141.78 19.52 141.78 17.00L141.78 17.00Q141.78 14.48 142.74 12.68Q143.71 10.88 145.28 9.76Q146.86 8.64 148.76 8.11Q150.67 7.59 152.53 7.59L152.53 7.59Q154.49 7.59 156.32 8.15Q158.16 8.71 159.49 9.76L159.49 9.76L159.49 1.15L166.28 1.15L166.28 26L159.60 26L159.60 24.29Q158.20 25.44 156.36 25.93Q154.52 26.42 152.53 26.42ZM148.61 16.83L148.61 17.18Q148.61 18.65 149.34 19.68Q150.08 20.71 151.30 21.26Q152.53 21.80 154.00 21.80L154.00 21.80Q155.33 21.80 156.59 21.34Q157.85 20.89 158.67 19.89Q159.49 18.89 159.49 17.28L159.49 17.28L159.49 16.73Q159.49 15.08 158.67 14.08Q157.85 13.08 156.59 12.65Q155.33 12.21 154.00 12.21L154.00 12.21Q151.76 12.21 150.18 13.40Q148.61 14.59 148.61 16.83L148.61 16.83Z"/></g>
        
      </svg>
    